# xmcd
#
# Track frame offsets:
#	150
#	9681
#	23268
#	40254
#	54384
#	67143
#	82781
#	93714
#	120463
#	144036
#	158287
#	168454
#	192721
#	204789
#	224790
#	250502
#	264901
#	288026
#
# Disc length: 4110 seconds
#
# Revision: 1
# Processed by: cddbd v1.5.2PL0 Copyright (c) Steve Scherf et al.
# Submitted via: audiograbber 1.83.01
#
DISCID=e7100c12
DTITLE=Various Artist - Blues   CD1
DYEAR=2009
DGENRE=
TTITLE0=Chuck Berry - Still Got The Blues
TTITLE1=John Lee Hooker - One Bourbon, One Scotch, One Beer
TTITLE2=Robben Ford and Blues Line - Start It Up
TTITLE3=Howlin' Wolf - Smokestack Lightnin' 
TTITLE4=Bo Diddley - Pretty Thing
TTITLE5=Buddy Guy and Muddy Waters - Country Boy
TTITLE6=Little Walter - Blue Midnight
TTITLE7=Jonny Kang - A Quitter Never Wins
TTITLE8=Lucky Peterson - When My Blood Runs Cold
TTITLE9=Steve Earle - Continental Trailways Blues
TTITLE10=Albert Collins - Dont' Lose Your Cool
TTITLE11=Ten Years After - I Can't Keep from Crying, Somwtimes
TTITLE12=Memphis Slim - Trouble Trouble
TTITLE13=The Robert Cray Band feat.  Memphis Horns - Consequences
TTITLE14=Julie Driscoll,Brian Auger and Trinity - All Blues
TTITLE15=Otis Rush - So Many Roads, So Many Trains
TTITLE16=Roy Buchanan - Wayfaring Pilgrim
TTITLE17=Lee Ritenour feat. Harvey Mason and Bob James - West Coast Blues
EXTD=Müller Edition
EXTT0=
EXTT1=
EXTT2=
EXTT3=
EXTT4=
EXTT5=
EXTT6=
EXTT7=
EXTT8=
EXTT9=
EXTT10=
EXTT11=
EXTT12=
EXTT13=
EXTT14=
EXTT15=
EXTT16=
EXTT17=
PLAYORDER=
